<svg height="512pt" viewBox="-77 0 512 512.04079" width="512pt" xmlns="http://www.w3.org/2000/svg"><path d="m349.921875 512.039062h-341.402344c-4.699219 0-8.4999998-3.796874-8.4999998-8.5v-495c0-4.699218 3.8007808-8.4999995 8.4999998-8.4999995h264.5c2.300781 0 4.402344.9023435 6 2.4999995l76.800781 76.800782c1.601563 1.601562 2.5 3.800781 2.5 6v418.101562c.101563 4.800782-3.699218 8.597656-8.398437 8.597656zm-332.800781-17.097656h324.300781v-406l-71.800781-71.800781h-252.5zm0 0"/><path d="m349.921875 93.941406h-76.800781c-4.699219 0-8.5-3.800781-8.5-8.5v-76.902344c0-3.398437 2.097656-6.597656 5.300781-7.898437 3.199219-1.300781 6.898437-.6015625 9.296875 1.898437l76.800781 76.800782c2.402344 2.402344 3.199219 6.101562 1.902344 9.300781-1.5 3.199219-4.601563 5.300781-8 5.300781zm-68.300781-17.101562h47.699218l-47.699218-47.699219zm0 0"/><path d="m349.921875 512.039062h-341.402344c-4.699219 0-8.4999998-3.796874-8.4999998-8.5v-153.597656c0-4.699218 3.8007808-8.5 8.4999998-8.5h341.300781c4.699219 0 8.5 3.800782 8.5 8.5v153.597656c.101563 4.703126-3.699218 8.5-8.398437 8.5zm-332.800781-17.097656h324.300781v-136.5h-324.300781zm0 0"/><path d="m59.71875 477.941406c-4.699219 0-8.5-3.800781-8.5-8.5v-85.402344c0-4.699218 3.800781-8.5 8.5-8.5 4.703125 0 8.5 3.800782 8.5 8.5v85.300782c.101562 4.699218-3.796875 8.601562-8.5 8.601562zm0 0"/><path d="m298.71875 392.539062h-51.199219c-4.699219 0-8.5-3.796874-8.5-8.5 0-4.699218 3.800781-8.5 8.5-8.5h51.199219c4.703125 0 8.5 3.800782 8.5 8.5 0 4.703126-3.796875 8.5-8.5 8.5zm0 0"/><path d="m298.71875 435.242188h-51.199219c-4.699219 0-8.5-3.800782-8.5-8.5 0-4.703126 3.800781-8.5 8.5-8.5h51.199219c4.703125 0 8.5 3.796874 8.5 8.5 0 4.699218-3.796875 8.5-8.5 8.5zm0 0"/><path d="m247.519531 477.941406c-4.699219 0-8.5-3.800781-8.5-8.5v-85.402344c0-4.699218 3.800781-8.5 8.5-8.5s8.5 3.800782 8.5 8.5v85.300782c0 4.699218-3.800781 8.601562-8.5 8.601562zm0 0"/><path d="m280.121094 221.140625c-3.300782-6.300781-11.402344-9.398437-24.699219-9.398437-7.800781 0-17.402344 1-28.601563 3-15.601562-16.300782-31.800781-40.101563-43.300781-63.5 1.800781-7.5 3.5-15.101563 4.800781-22.703126 1.5-8.898437 3.300782-19.097656 1.398438-28.097656-.796875-3.601562-2.898438-6.800781-5.296875-9.5-2.101563-2.300781-5-5.5-8.402344-5.5-1.800781 0-6.699219.800782-8.597656 1.398438-4.902344 1.601562-7.5 5.402344-9.601563 10.199218-6 13.902344 2.199219 37.5 10.699219 55.800782-7.300781 28.5-19.398437 62.601562-32.199219 90.300781-32.199218 14.601563-49.300781 28.898437-50.898437 42.601563-.601563 5 .597656 12.296874 9.5 18.796874 2.398437 1.800782 5.296875 2.703126 8.199219 2.703126 7.398437 0 15-5.601563 23.699218-17.703126 6.300782-8.796874 13.199219-20.796874 20.300782-35.699218 22.800781-9.800782 50.898437-18.699219 75.097656-23.699219 13.402344 12.699219 25.5 19.199219 35.800781 19.199219 7.601563 0 14.101563-3.5 18.902344-10 4.898437-6.800782 6-12.898438 3.199219-18.199219zm-176.800782 71.898437c-4-3-3.699218-5-3.699218-5.796874.5-4.703126 7.898437-13 26.097656-23-13.699219 25.097656-21.097656 28.398437-22.398438 28.796874zm69.800782-192.5c.398437-.097656 8.898437 9.203126.800781 27-12.101563-12.199218-1.703125-26.699218-.800781-27zm-17.601563 134.601563c8.601563-20.300781 16.699219-42.699219 22.699219-63.5 9.5 16.898437 21 33.398437 32.5 46.601563-18.097656 4.097656-37.398438 10.097656-55.199219 16.898437zm109.699219-4c-2.597656 3.601563-8.296875 3.699219-10.296875 3.699219-4.5 0-6.203125-2.699219-13.203125-7.898438 5.703125-.699218 11.101562-.902344 15.402344-.902344 7.597656 0 9 1.101563 10 1.703126-.101563.5-.601563 1.597656-1.902344 3.398437zm0 0"/><path d="m85.320312 443.742188h-25.601562c-4.699219 0-8.5-3.800782-8.5-8.5v-51.203126c0-4.699218 3.800781-8.5 8.5-8.5h25.601562c18.800782 0 34.101563 15.300782 34.101563 34.101563.097656 18.800781-15.203125 34.101563-34.101563 34.101563zm-17-17h17.101563c9.398437 0 17.097656-7.703126 17.097656-17.101563s-7.699219-17.101563-17.097656-17.101563h-17.101563zm0 0"/><path d="m162.121094 477.941406h-8.5c-4.699219 0-8.5-3.800781-8.5-8.5v-85.402344c0-4.699218 3.800781-8.5 8.5-8.5h8.5c28.199218 0 51.199218 23 51.199218 51.203126 0 28.199218-22.898437 51.199218-51.199218 51.199218zm0-85.402344v68.300782c18.800781 0 34.097656-15.300782 34.097656-34.097656 0-18.800782-15.199219-34.203126-34.097656-34.203126zm0 0"/></svg>