<?xml version="1.0" encoding="iso-8859-1"?>
<!-- Generator: Adobe Illustrator 19.0.0, SVG Export Plug-In . SVG Version: 6.00 Build 0)  -->
<svg version="1.1" id="Capa_1" xmlns="http://www.w3.org/2000/svg" xmlns:xlink="http://www.w3.org/1999/xlink" x="0px" y="0px"
	 viewBox="0 0 57.504 57.504" style="enable-background:new 0 0 57.504 57.504;" xml:space="preserve">
<g>
	<g>
		<path d="M28.901,35.087l-10.716,8.179l-6.156-3.628v4.727l16.72,11.107l17.092-11.028v-4.896l-6.228,3.718L28.901,35.087z
			 M43.841,43.354l-15.076,9.728l-14.735-9.789v-0.154l4.299,2.532l10.573-8.067l10.577,8.073l4.363-2.604V43.354z"/>
		<path d="M18.264,41.858l10.638-8.119l10.637,8.122l17.965-10.724l-10.615-9.051l10.601-8.788L39.777,2.041l-10.868,9.066
			L18.274,2.032L0.053,13.838l11.377,8.608L0,31.097L18.264,41.858z M54.084,30.85l-14.408,8.599l-9.424-7.194l14.37-9.472
			L54.084,30.85z M39.937,4.512l14.161,9l-9.002,7.461l-14.772-8.442L39.937,4.512z M28.947,14.049l13.546,7.741l-13.713,9.04
			l-13.586-8.515L28.947,14.049z M3.535,13.965L18.11,4.521l9.425,8.043l-14.408,8.659L3.535,13.965z M13.336,23.511l14.095,8.834
			l-9.312,7.106L3.588,30.89L13.336,23.511z"/>
	</g>
</g>
<g>
</g>
<g>
</g>
<g>
</g>
<g>
</g>
<g>
</g>
<g>
</g>
<g>
</g>
<g>
</g>
<g>
</g>
<g>
</g>
<g>
</g>
<g>
</g>
<g>
</g>
<g>
</g>
<g>
</g>
</svg>
